<svg xmlns="http://www.w3.org/2000/svg" version="1.1" viewBox="75.15 59.01 219.68 66.02">
<rect fill="#050604" x="-2.35" y="-2.75" transform="translate(77.51,61.77) rotate(-0.2)" width="4.70" height="5.50" rx="0.33"/>
<rect fill="#050604" x="-2.36" y="-2.73" transform="translate(113.58,61.75) rotate(-0.3)" width="4.72" height="5.46" rx="0.35"/>
<rect fill="#050604" x="-2.35" y="-2.74" transform="translate(145.79,61.75) rotate(-0.1)" width="4.70" height="5.48" rx="0.39"/>
<path fill="#050604" d="   M 244.38 96.75   L 241.11 103.73   A 0.47 0.47 0.0 0 1 240.68 104.00   L 200.31 104.00   A 0.47 0.47 0.0 0 1 199.90 103.75   L 196.41 97.29   A 0.47 0.47 0.0 0 1 196.42 96.83   L 216.36 62.24   A 0.47 0.47 0.0 0 1 216.77 62.01   L 223.74 62.00   A 0.47 0.47 0.0 0 1 224.15 62.23   L 244.36 96.31   A 0.47 0.47 0.0 0 1 244.38 96.75   Z   M 234.27 90.29   A 0.35 0.35 0.0 0 1 233.97 90.82   L 214.71 90.70   A 0.35 0.35 0.0 0 0 214.40 90.89   L 211.98 95.49   A 0.35 0.35 0.0 0 0 212.29 96.00   L 242.19 96.00   A 0.35 0.35 0.0 0 0 242.49 95.47   L 223.42 63.68   A 0.35 0.35 0.0 0 0 223.13 63.52   L 218.79 63.41   A 0.35 0.35 0.0 0 0 218.48 63.94   L 234.27 90.29   Z   M 216.75 73.70   A 0.32 0.32 0.0 0 1 217.30 73.69   L 226.82 88.98   A 0.55 0.54 73.9 0 0 227.28 89.24   L 232.02 89.26   Q 232.05 89.26 232.04 89.24   L 217.31 64.72   Q 217.00 64.21 216.69 64.73   L 198.22 96.16   A 1.67 1.67 0.0 0 0 198.18 97.78   L 200.44 102.08   Q 200.64 102.47 200.96 102.16   Q 201.13 102.00 201.02 101.77   Q 200.84 101.41 201.04 101.06   L 216.75 73.70   Z   M 209.75 97.55   A 0.32 0.32 0.0 0 1 209.46 97.08   L 218.88 79.52   A 0.32 0.32 0.0 0 0 218.87 79.22   L 217.30 76.41   A 0.32 0.32 0.0 0 0 216.74 76.41   L 201.99 102.03   A 0.32 0.32 0.0 0 0 202.26 102.51   L 240.06 102.49   A 0.32 0.32 0.0 0 0 240.34 102.32   L 242.61 97.92   A 0.32 0.32 0.0 0 0 242.32 97.45   L 209.75 97.55   Z   M 220.34 81.20   A 0.34 0.34 0.0 0 0 219.75 81.21   L 215.51 88.73   A 0.34 0.34 0.0 0 0 215.81 89.24   L 224.66 89.28   A 0.34 0.34 0.0 0 0 224.96 88.76   L 220.34 81.20   Z"/>
<path fill="#050604" d="   M 126.30 71.85   L 126.31 65.00   A 0.65 0.65 0.0 0 1 126.87 64.36   L 129.85 63.90   Q 130.38 63.83 130.38 64.35   L 130.37 71.94   Q 130.37 72.50 130.94 72.50   L 138.49 72.50   Q 138.99 72.50 138.99 72.99   L 139.00 76.00   Q 139.00 76.50 138.50 76.50   L 130.99 76.49   Q 130.40 76.49 130.40 77.08   Q 130.36 88.58 130.41 97.47   Q 130.42 100.66 133.09 102.06   C 134.65 102.89 136.86 102.39 138.59 102.54   Q 138.99 102.57 138.99 102.98   L 139.00 105.83   Q 139.00 106.41 138.43 106.46   C 131.39 107.04 126.26 104.05 126.29 96.20   Q 126.32 86.42 126.30 77.05   Q 126.30 76.48 125.73 76.48   L 120.75 76.50   Q 120.26 76.50 120.25 76.00   L 120.23 73.01   Q 120.23 72.50 120.74 72.50   L 125.65 72.50   Q 126.30 72.50 126.30 71.85   Z"/>
<path fill="#050604" d="   M 254.51 76.49   L 249.52 76.50   Q 249.05 76.50 249.05 76.02   L 249.05 72.98   Q 249.05 72.51 249.52 72.51   L 254.47 72.51   A 0.73 0.72 90.0 0 0 255.19 71.78   L 255.18 64.90   Q 255.18 64.48 255.59 64.41   L 258.78 63.86   A 0.39 0.38 85.0 0 1 259.23 64.24   L 259.20 71.97   Q 259.20 72.51 259.73 72.51   L 267.26 72.51   Q 267.76 72.51 267.76 73.01   L 267.78 75.98   Q 267.78 76.49 267.27 76.49   L 259.76 76.49   Q 259.21 76.49 259.21 77.05   Q 259.22 87.61 259.23 97.63   Q 259.24 100.22 261.40 101.75   C 263.14 102.99 265.48 102.43 267.50 102.52   Q 267.78 102.54 267.78 102.81   L 267.78 106.02   Q 267.78 106.39 267.40 106.43   C 260.73 107.06 255.18 104.29 255.17 96.92   Q 255.17 86.55 255.20 77.17   Q 255.20 76.49 254.51 76.49   Z"/>
<path fill="#050604" d="   M 88.16 75.55   C 93.11 70.23 102.17 70.81 105.67 77.45   Q 106.92 79.84 106.85 84.97   Q 106.69 95.79 106.79 106.00   Q 106.79 106.49 106.30 106.49   L 103.05 106.49   Q 102.74 106.49 102.74 106.18   Q 102.75 93.78 102.75 82.53   Q 102.74 75.36 95.00 75.67   Q 88.14 75.95 88.19 82.46   Q 88.27 94.61 88.19 106.26   Q 88.19 106.48 87.98 106.48   L 84.48 106.50   Q 84.21 106.50 84.21 106.23   L 84.20 73.06   A 0.71 0.68 76.9 0 1 84.57 72.44   Q 85.14 72.15 85.48 72.62   Q 86.48 73.99 87.31 75.45   A 0.53 0.53 0.0 0 0 88.16 75.55   Z"/>
<path fill="#050604" d="   M 156.54 75.51   C 160.34 71.28 165.98 70.94 170.48 74.10   C 171.44 74.77 172.07 75.78 172.76 76.71   Q 173.18 77.25 173.53 76.67   Q 176.67 71.56 182.77 72.06   C 189.52 72.61 192.41 77.78 192.32 84.19   Q 192.16 95.12 192.27 106.19   Q 192.28 106.49 191.97 106.49   L 188.48 106.49   Q 188.22 106.49 188.22 106.23   Q 188.21 94.45 188.21 82.33   C 188.22 77.20 184.59 75.29 180.05 75.73   C 176.76 76.05 174.40 78.34 174.39 81.65   Q 174.34 94.07 174.36 105.96   Q 174.36 106.50 173.83 106.49   L 170.77 106.49   A 0.47 0.47 0.0 0 1 170.30 106.02   Q 170.27 93.67 170.32 82.92   Q 170.35 75.21 162.68 75.69   C 158.82 75.93 156.46 78.30 156.48 82.05   Q 156.53 95.26 156.48 106.02   A 0.47 0.47 0.0 0 1 156.01 106.49   L 152.96 106.49   Q 152.48 106.49 152.48 106.01   Q 152.46 88.69 152.47 72.83   Q 152.47 72.50 153.22 72.43   A 0.80 0.79 70.9 0 1 153.95 72.79   L 155.62 75.43   Q 156.03 76.09 156.54 75.51   Z"/>
<path fill="#050604" d="   M 276.22 90.50   Q 276.30 93.52 276.26 96.70   C 276.19 102.58 281.00 103.92 285.69 103.16   Q 291.36 102.26 290.77 95.64   Q 290.74 95.26 291.12 95.31   L 294.52 95.74   Q 294.80 95.78 294.81 96.06   Q 295.09 103.94 288.21 106.37   C 280.18 109.20 271.98 105.06 272.21 95.78   Q 272.36 89.76 272.19 83.11   C 271.98 74.41 278.26 71.36 286.03 72.14   C 290.75 72.61 294.47 76.54 294.71 81.08   Q 294.90 84.61 294.79 89.19   Q 294.78 89.74 294.23 89.74   L 276.96 89.74   Q 276.20 89.74 276.22 90.50   Z   M 276.73 86.76   L 290.35 86.76   A 0.48 0.48 0.0 0 0 290.83 86.28   L 290.83 81.87   A 6.15 5.93 -90.0 0 0 284.90 75.72   L 282.18 75.72   A 6.15 5.93 90.0 0 0 276.25 81.87   L 276.25 86.28   A 0.48 0.48 0.0 0 0 276.73 86.76   Z"/>
<rect fill="#050604" x="75.50" y="72.51" width="4.02" height="33.98" rx="0.42"/>
<rect fill="#050604" x="111.55" y="72.50" width="4.04" height="33.98" rx="0.45"/>
<rect fill="#050604" x="143.77" y="72.50" width="4.02" height="33.98" rx="0.38"/>
<path fill="#050604" d="   M 191.73 122.64   L 191.01 124.72   A 0.45 0.45 0.0 0 1 190.55 125.01   L 190.11 124.96   Q 189.68 124.92 189.82 124.51   Q 191.56 119.33 192.97 115.32   Q 193.15 114.79 193.68 114.64   A 0.78 0.78 0.0 0 1 194.64 115.14   L 197.82 124.53   Q 197.98 125.02 197.47 124.97   L 197.00 124.93   A 0.74 0.73 85.4 0 1 196.36 124.38   L 195.93 122.66   A 0.88 0.88 0.0 0 0 195.08 122.00   L 192.62 122.00   Q 191.95 122.00 191.73 122.64   Z   M 192.26 120.57   A 0.31 0.31 0.0 0 0 192.55 120.98   L 195.01 121.00   A 0.31 0.31 0.0 0 0 195.30 120.59   L 194.10 116.97   A 0.31 0.31 0.0 0 0 193.51 116.96   L 192.26 120.57   Z"/>
<rect fill="#050604" x="-0.65" y="-5.08" transform="translate(164.02,119.85) rotate(0.1)" width="1.30" height="10.16" rx="0.46"/>
<path fill="#050604" d="   M 168.58 117.69   L 168.70 124.49   A 0.43 0.43 0.0 0 1 168.26 124.93   L 167.82 124.91   Q 167.46 124.90 167.46 124.54   L 167.47 116.96   Q 167.47 112.51 169.66 116.38   L 173.01 122.32   Q 173.53 123.25 173.52 122.19   L 173.44 115.17   A 0.41 0.40 -2.2 0 1 173.83 114.76   L 174.16 114.75   Q 174.67 114.74 174.67 115.24   L 174.65 124.35   Q 174.65 124.72 174.33 124.91   Q 173.92 125.15 173.44 124.90   Q 173.12 124.75 172.95 124.42   Q 171.01 120.67 169.05 117.55   Q 168.56 116.77 168.58 117.69   Z"/>
<path fill="#050604" d="   M 177.49 115.19   A 0.48 0.48 0.0 0 1 177.98 114.72   L 180.34 114.73   A 4.72 4.44 -89.6 0 1 184.74 119.49   L 184.74 120.35   A 4.72 4.44 -89.6 0 1 180.26 125.03   L 177.90 125.02   A 0.48 0.48 0.0 0 1 177.43 124.53   L 177.49 115.19   Z   M 178.72 116.40   L 178.74 123.60   A 0.40 0.40 0.0 0 0 179.14 124.00   L 180.11 124.00   A 3.38 3.29 89.9 0 0 183.39 120.62   L 183.39 119.38   A 3.38 3.29 89.9 0 0 180.09 116.00   L 179.12 116.00   A 0.40 0.40 0.0 0 0 178.72 116.40   Z"/>
<rect fill="#050604" x="186.98" y="114.73" width="1.26" height="10.26" rx="0.54"/>
<path fill="#050604" d="   M 205.48 122.00   L 205.43 115.17   Q 205.43 114.77 205.83 114.76   L 206.13 114.76   Q 206.63 114.75 206.63 115.25   L 206.61 124.35   Q 206.61 124.91 206.05 124.99   Q 205.68 125.05 205.35 124.85   Q 205.10 124.71 204.97 124.45   Q 203.00 120.65 201.01 117.53   Q 200.53 116.79 200.55 117.67   L 200.67 124.45   Q 200.68 124.90 200.22 124.91   L 199.89 124.93   A 0.47 0.47 0.0 0 1 199.41 124.46   L 199.45 116.53   Q 199.46 112.82 201.39 115.99   Q 202.96 118.58 204.88 122.15   Q 205.49 123.28 205.48 122.00   Z"/>
</svg>